<svg width="22" height="22" viewBox="0 0 22 22" fill="none" xmlns="http://www.w3.org/2000/svg">
<path d="M8.38159 19.0503V16.239C8.38158 15.5266 8.96087 14.9478 9.6784 14.9433H12.3131C13.0338 14.9433 13.6181 15.5234 13.6181 16.239V19.0421C13.6181 19.66 14.1202 20.1622 14.7425 20.1667H16.54C17.3795 20.1688 18.1854 19.8392 18.7797 19.2506C19.3741 18.6621 19.7082 17.8629 19.7082 17.0294V9.04369C19.7082 8.37043 19.4076 7.73182 18.8874 7.29987L12.7809 2.45141C11.7135 1.60336 10.1889 1.63075 9.15311 2.5166L3.17793 7.29987C2.63318 7.71908 2.30759 8.35959 2.2915 9.04369V17.0212C2.2915 18.7584 3.70994 20.1667 5.45966 20.1667H7.2161C7.51575 20.1688 7.80387 20.0521 8.01652 19.8426C8.22917 19.633 8.34877 19.3478 8.34876 19.0503H8.38159Z" fill="currentColor"/>
</svg>
