<svg width="22" height="22" viewBox="0 0 22 22" fill="none" xmlns="http://www.w3.org/2000/svg">
<g opacity="1">
<path d="M10.5352 1.83331C12.8108 1.83331 14.6668 3.65748 14.6668 5.90331V10.2941H9.0709C8.66986 10.2941 8.35275 10.6058 8.35275 11C8.35275 11.385 8.66986 11.7058 9.0709 11.7058H14.6668V16.0875C14.6668 18.3333 12.8108 20.1666 10.5165 20.1666H5.97448C3.68948 20.1666 1.8335 18.3425 1.8335 16.0966V5.91248C1.8335 3.65748 3.69881 1.83331 5.98381 1.83331H10.5352ZM16.9953 7.83766C17.2703 7.5535 17.7195 7.5535 17.9945 7.8285L20.6712 10.496C20.8087 10.6335 20.882 10.8077 20.882 11.0002C20.882 11.1835 20.8087 11.3668 20.6712 11.4952L17.9945 14.1627C17.857 14.3002 17.6737 14.3735 17.4995 14.3735C17.3162 14.3735 17.1328 14.3002 16.9953 14.1627C16.7203 13.8877 16.7203 13.4385 16.9953 13.1635L18.462 11.706H14.667V10.2943H18.462L16.9953 8.83683C16.7203 8.56183 16.7203 8.11266 16.9953 7.83766Z" fill="currentColor"/>
</g>
</svg>
