<svg width="22" height="22" viewBox="0 0 22 22" fill="none" xmlns="http://www.w3.org/2000/svg">
<path d="M15.5833 4.35416H14.6667V2.98832C14.6667 2.22749 14.0433 1.60416 13.2825 1.60416H8.7175C7.95667 1.60416 7.33334 2.22749 7.33334 2.98832V4.35416H6.41667C5.40834 4.35416 4.58334 5.17916 4.58334 6.18749V6.30666C4.87667 6.22416 5.17917 6.18749 5.5 6.18749H16.5C16.8208 6.18749 17.1233 6.22416 17.4167 6.30666V6.18749C17.4167 5.17916 16.5917 4.35416 15.5833 4.35416Z" fill="currentColor"/>
<path d="M12.7692 15.5192C12.4758 15.5192 12.2467 15.7575 12.2467 16.0417C12.2467 16.3258 12.485 16.5642 12.7692 16.5642C13.0533 16.5642 13.2917 16.3258 13.2917 16.0417C13.2917 15.7575 13.0533 15.5192 12.7692 15.5192Z" fill="currentColor"/>
<path d="M8.31416 16.3258C8.02083 16.3258 7.79166 16.5642 7.79166 16.8483C7.79166 17.1325 8.03 17.3708 8.31416 17.3708C8.59833 17.3708 8.83666 17.1325 8.83666 16.8483C8.83666 16.5642 8.6075 16.3258 8.31416 16.3258Z" fill="currentColor"/>
<path d="M17.4167 7.68167C17.1233 7.59917 16.8208 7.5625 16.5 7.5625H5.5C5.17917 7.5625 4.87667 7.59917 4.58334 7.68167C3.00667 8.09417 1.83334 9.53333 1.83334 11.2292V16.7292C1.83334 18.7458 3.48334 20.3958 5.5 20.3958H16.5C18.5167 20.3958 20.1667 18.7458 20.1667 16.7292V11.2292C20.1667 9.53333 18.9933 8.09417 17.4167 7.68167ZM14.6667 12.1733V16.0417C14.6667 17.0867 13.8142 17.9392 12.7692 17.9392C11.7242 17.9392 10.8717 17.0867 10.8717 16.0417C10.8717 14.9967 11.7242 14.1442 12.7692 14.1442C12.9525 14.1442 13.1267 14.1808 13.2917 14.2267V13.0717L10.2208 13.9058V16.8483C10.2208 16.8575 10.2208 16.8667 10.2117 16.8758C10.2025 17.9117 9.35 18.755 8.31417 18.755C7.26917 18.755 6.41667 17.9025 6.41667 16.8483C6.41667 15.7942 7.26917 14.9508 8.31417 14.9508C8.4975 14.9508 8.67167 14.9875 8.84584 15.0333V13.3833V11.9625C8.84584 11.1742 9.34084 10.5325 10.0925 10.3308L12.5217 9.66167C13.3008 9.45083 13.7958 9.6525 14.0708 9.86333C14.3458 10.0742 14.6667 10.4867 14.6667 11.3025V12.1733Z" fill="currentColor"/>
</svg>
