<svg width="26" height="26" viewBox="0 0 26 26" fill="none" xmlns="http://www.w3.org/2000/svg">
<path opacity="0.6" fill-rule="evenodd" clip-rule="evenodd" d="M10.8019 16.2854C12.2059 17.4072 13.9862 17.9488 15.777 17.799C17.5679 17.6492 19.2334 16.8193 20.4316 15.4799C21.6297 14.1404 22.2695 12.393 22.2195 10.5966C22.1695 8.80019 21.4335 7.0911 20.1628 5.82034C18.892 4.54959 17.1829 3.81364 15.3865 3.76366C13.5901 3.71367 11.8427 4.35344 10.5033 5.55156C9.16381 6.74969 8.33397 8.41522 8.18417 10.2061C8.03436 11.9969 8.57598 13.7772 9.69776 15.1812L4.32693 20.551C4.25017 20.6225 4.18861 20.7088 4.14591 20.8046C4.10321 20.9004 4.08025 21.0039 4.0784 21.1088C4.07655 21.2137 4.09584 21.3179 4.13514 21.4152C4.17443 21.5124 4.23291 21.6008 4.3071 21.675C4.38128 21.7492 4.46965 21.8077 4.56693 21.847C4.66421 21.8862 4.76841 21.9055 4.87331 21.9037C4.97821 21.9018 5.08166 21.8789 5.17749 21.8362C5.27332 21.7935 5.35957 21.7319 5.4311 21.6552L10.8019 16.2854ZM19.0582 14.6583C19.8227 13.8937 20.3434 12.9196 20.5545 11.8591C20.7656 10.7986 20.6576 9.69936 20.2441 8.70026C19.8306 7.70116 19.1303 6.84706 18.2315 6.24589C17.3327 5.64472 16.2759 5.32347 15.1947 5.32275C14.1134 5.32202 13.0562 5.64184 12.1566 6.2418C11.257 6.84176 10.5555 7.69492 10.1407 8.69346C9.72587 9.69201 9.61637 10.7911 9.82603 11.8519C10.0357 12.9126 10.5551 13.8874 11.3186 14.6531L11.3238 14.6583L11.329 14.6625C12.355 15.686 13.7452 16.2605 15.1945 16.2597C16.6437 16.2589 18.0333 15.683 19.0582 14.6583Z" fill="white"/>
</svg>
