<svg width="16" height="16" viewBox="0 0 16 16" fill="none" xmlns="http://www.w3.org/2000/svg">
<g clip-path="url(#clip0_9_1331)">
<path d="M2.90937 10.1812V4.3625H1.45312C0.653125 4.3625 0 5.01562 0 5.81875V14.5469C0 15.3469 0.653125 16 1.45312 16H10.1812C10.9844 16 11.6344 15.3469 11.6344 14.5469V13.0938H5.81875C4.2125 13.0906 2.90937 11.7875 2.90937 10.1812ZM14.5469 0H5.81875C5.01562 0 4.36562 0.653125 4.36562 1.45312V10.1812C4.36562 10.9844 5.01875 11.6344 5.81875 11.6344H14.5469C15.35 11.6344 16 10.9812 16 10.1812V1.45312C16 0.653125 15.3469 0 14.5469 0ZM13.8188 6.54688H10.9094V9.45625H9.45625V6.54688H6.54688V5.09375H9.45625V2.18125H10.9094V5.09062H13.8188V6.54688Z" fill="currentColor"/>
</g>
<defs>
<clipPath id="clip0_9_1331">
<rect width="16" height="16" fill="white"/>
</clipPath>
</defs>
</svg>
